<?xml version="1.0" encoding="UTF-8"?>
<svg version="1.1" xmlns="http://www.w3.org/2000/svg" width="450" height="360">
<path d="M0 0 C13.30751123 10.79328257 20.30053517 23.26903521 24.43701172 39.81494141 C24.43701172 45.42494141 24.43701172 51.03494141 24.43701172 56.81494141 C9.25701172 57.14494141 -5.92298828 57.47494141 -21.56298828 57.81494141 C-14.0564888 66.68625898 -6.73769868 74.82185728 1.66357422 82.69970703 C2.42927734 83.44027344 3.19498047 84.18083984 3.98388672 84.94384766 C4.67321289 85.59426025 5.36253906 86.24467285 6.07275391 86.91479492 C7.43701172 88.81494141 7.43701172 88.81494141 7.23754883 90.95214844 C3.65116506 99.29740863 -7.71123141 103.55810335 -15.56298828 106.81494141 C-26.90318344 110.61290026 -38.00830304 111.32416802 -49.37548828 107.56494141 C-60.49444109 104.92037018 -70.63428549 112.38679705 -80.05200195 117.66577148 C-82.56298828 118.81494141 -82.56298828 118.81494141 -86.56298828 118.81494141 C-86.12459347 113.97289538 -85.52006428 109.35169533 -84.37939453 104.62353516 C-84.07291992 103.29999023 -84.07291992 103.29999023 -83.76025391 101.94970703 C-83.33473006 100.14155803 -82.88384542 98.33920257 -82.40869141 96.54345703 C-81.24325922 91.42988949 -81.24325922 91.42988949 -82.71020508 86.55102539 C-84.23956713 84.53940027 -85.86259161 82.68242446 -87.56298828 80.81494141 C-96.06845886 66.86428123 -97.7279608 50.89964674 -94.87158203 34.95556641 C-91.44452913 22.96805082 -85.30658453 13.58954332 -76.56298828 4.81494141 C-76.02158203 4.25033203 -75.48017578 3.68572266 -74.92236328 3.10400391 C-55.450178 -15.48308204 -21.13197373 -16.02227437 0 0 Z " fill="#30ABE0" transform="translate(238.56298828125,143.18505859375)"/>
<path d="M0 0 C4.35645981 1.74258392 7.69073764 4.90550021 10 9 C11.37445092 13.60105825 11.24421883 17.13805118 9.9375 21.75 C7.3930808 26.01805801 4.50518472 28.74740764 0 31 C-5.68331608 31.59106487 -10.14777003 31.27243416 -15 28 C-19.14972213 24.08081799 -20.69077412 19.61291828 -21 14 C-20.27556648 9.34530647 -18.5068427 6.12318944 -14.9375 3.0625 C-9.90108582 -0.4737057 -6.06038228 -0.51781747 0 0 Z " fill="#2EA8DC" transform="translate(282,143)"/>
<path d="M0 0 C3.57534337 3.06458003 5.34944044 5.02511167 5.94140625 9.8046875 C6.13332092 14.37349472 5.97350902 17.51276939 4 21.6875 C-0.11907949 26.13176997 -3.24433208 28.47384379 -9.375 28.75 C-14.05713011 28.55989848 -16.76091155 27.33519746 -20.375 24.25 C-20.9525 23.79625 -21.53 23.3425 -22.125 22.875 C-24.86382021 19.31453373 -25.60297586 15.64538986 -25.25 11.25 C-24.44187684 6.27766576 -22.09340651 2.8073059 -18.375 -0.5625 C-12.51460277 -4.04211085 -5.8267628 -3.02128441 0 0 Z " fill="#F5BB3C" transform="translate(301.375,99.75)"/>
<path d="M0 0 C2.97239241 1.78476241 5.42604027 3.85208055 7 7 C7.37712577 11.99691647 7.09290612 14.99067725 4 19 C-0.01858595 21.6790573 -3.27641721 21.69610694 -8 21 C-10.87029869 19.20606332 -12.49131638 18.01736724 -14 15 C-14.34708476 9.70695745 -14.51351894 6.26641586 -11 2 C-7.57080428 -0.57189679 -4.16060514 -0.502142 0 0 Z " fill="#8DC540" transform="translate(261,120)"/>
<path d="M0 0 C1.9375 1.6875 1.9375 1.6875 3 4 C2.93108944 7.85899147 2.52415508 10.21376738 0.375 13.4375 C-2.9617771 15.63274809 -5.08548544 15.55921637 -9 15 C-12.00342896 12.94502229 -12.83287356 11.52366286 -13.9375 8.0625 C-14.01378017 4.32477184 -13.38228107 2.85873728 -11 0 C-6.86979255 -2.56742625 -4.30348183 -2.05818696 0 0 Z " fill="#FBBC16" transform="translate(280,182)"/>
<path d="M0 0 C5.02728509 7.54092764 3 15.94692081 3 25 C-12.18 25.33 -27.36 25.66 -43 26 C-42.67 26.99 -42.34 27.98 -42 29 C-42.66 29 -43.32 29 -44 29 C-46 26 -46 26 -46 23 C-30.49 23 -14.98 23 1 23 C0.67 15.41 0.34 7.82 0 0 Z " fill="#37A1CB" transform="translate(260,175)"/>
<path d="M0 0 C0 0.33 0 0.66 0 1 C-4.95 2.485 -4.95 2.485 -10 4 C-11.15873375 9.97188971 -11.15873375 9.97188971 -11 16 C-9.00155751 18.13353917 -9.00155751 18.13353917 -6 19 C-2.66213732 18.77370423 -0.00171497 18.50085749 3 17 C5.60466479 11.66043717 4.68396297 8.4261029 3 3 C6.07053382 5.39885455 6.93626913 6.49925747 7.4375 10.4375 C6.97872659 14.1732263 6.27982082 16.04467671 4 19 C-0.01858595 21.6790573 -3.27641721 21.69610694 -8 21 C-10.87029869 19.20606332 -12.49131638 18.01736724 -14 15 C-14.34708476 9.70695745 -14.51351894 6.26641586 -11 2 C-7.58063208 -0.56452594 -4.14444215 -0.15940162 0 0 Z " fill="#8EB94F" transform="translate(261,120)"/>
<path d="M0 0 C1.9375 1.6875 1.9375 1.6875 3 4 C2.93108944 7.85899147 2.52415508 10.21376738 0.375 13.4375 C-2.9617771 15.63274809 -5.08548544 15.55921637 -9 15 C-12.00342896 12.94502229 -12.83287356 11.52366286 -13.9375 8.0625 C-14.01378017 4.32477184 -13.38228107 2.85873728 -11 0 C-6.86979255 -2.56742625 -4.30348183 -2.05818696 0 0 Z M-5.5 1.1875 C-8.85060392 1.79289258 -8.85060392 1.79289258 -11 3.125 C-12.64409666 6.20768124 -11.78988325 8.71894649 -11 12 C-7.95016004 13.52491998 -5.3576631 13.23562548 -2 13 C0.08333333 12.08333333 0.08333333 12.08333333 1 10 C1.50007794 6.45786015 1.50007794 6.45786015 1 3 C-1.88599388 0.64381458 -1.88599388 0.64381458 -5.5 1.1875 Z " fill="#DEB940" transform="translate(280,182)"/>
<path d="M0 0 C3.73867071 3.12827549 7.43269846 6.30173921 11 9.625 C11.598125 10.17414063 12.19625 10.72328125 12.8125 11.2890625 C14 13 14 13 13.921875 14.98828125 C11.50996893 20.25155085 5.04616023 24.47691988 0 27 C-0.66 27 -1.32 27 -2 27 C-2 26.34 -2 25.68 -2 25 C0.046875 23.66796875 0.046875 23.66796875 2.75 22.1875 C6.7036135 19.90829222 9.47591026 17.90086596 12 14 C9.77122275 11.35426499 9.77122275 11.35426499 7 9 C4.72476911 9.04497842 4.72476911 9.04497842 3 10 C3.33 8.35 3.66 6.7 4 5 C2.68 4.67 1.36 4.34 0 4 C0 2.68 0 1.36 0 0 Z " fill="#3F9BC0" transform="translate(232,219)"/>
<path d="M0 0 C0.33 0 0.66 0 1 0 C1.66 2.97 2.32 5.94 3 9 C7.2787981 8.58413646 7.2787981 8.58413646 10.875 6.4375 C11.24625 5.963125 11.6175 5.48875 12 5 C13.32 5.66 14.64 6.32 16 7 C13.75474054 8.17666004 11.50455858 9.3414074 9.25 10.5 C8.61578125 10.83386719 7.9815625 11.16773438 7.328125 11.51171875 C3.87989007 13.27175533 1.95159931 14 -2 14 C-1.03644647 4.58997722 -1.03644647 4.58997722 0 0 Z " fill="#3BA0C7" transform="translate(154,248)"/>
<path d="M0 0 C10.35412923 1.48980277 18.21318646 9.60991415 25 17 C21.24196327 17 20.6733126 16.07885675 18 13.5625 C15.54050752 11.2567258 14.23971026 10.07990342 11 9 C11 8.34 11 7.68 11 7 C10.34 7 9.68 7 9 7 C9 6.34 9 5.68 9 5 C8.071875 4.731875 7.14375 4.46375 6.1875 4.1875 C3.23759634 3.08851629 1.94384814 2.37581439 0 0 Z " fill="#3E9FC6" transform="translate(225,137)"/>
<path d="M0 0 C2.66577204 2.34067789 3.62344605 3.86940579 4.5625 7.25 C3.9025 7.25 3.2425 7.25 2.5625 7.25 C2.48 6.63125 2.3975 6.0125 2.3125 5.375 C1.75666524 3.08911206 1.75666524 3.08911206 -0.375 2.0625 C-1.055625 1.794375 -1.73625 1.52625 -2.4375 1.25 C-3.0975 0.92 -3.7575 0.59 -4.4375 0.25 C-10.3183769 -0.3616112 -14.22144191 0.32391863 -19.4375 3.25 C-20.0975 2.92 -20.7575 2.59 -21.4375 2.25 C-14.6523154 -3.59279785 -8.03302857 -4.08954182 0 0 Z " fill="#DBB84F" transform="translate(301.4375,99.75)"/>
<path d="M0 0 C0.66 0 1.32 0 2 0 C0.47255894 4.27683498 -2.00075302 6.00037651 -6 8 C-10.48284629 8.64343693 -14.4343527 9.03757304 -18.3046875 6.47265625 C-19.14386719 5.74369141 -19.14386719 5.74369141 -20 5 C-18.78763672 5.12568359 -18.78763672 5.12568359 -17.55078125 5.25390625 C-16.48214844 5.35574219 -15.41351563 5.45757812 -14.3125 5.5625 C-13.25675781 5.66691406 -12.20101563 5.77132812 -11.11328125 5.87890625 C-8.18573914 5.99277552 -5.82868856 5.70848415 -3 5 C-3 4.34 -3 3.68 -3 3 C-2.34 3 -1.68 3 -1 3 C-0.67 2.01 -0.34 1.02 0 0 Z " fill="#DFB94D" transform="translate(303,120)"/>
<path d="M0 0 C0.33 0.66 0.66 1.32 1 2 C-0.11375 2.12375 -1.2275 2.2475 -2.375 2.375 C-6.03103677 2.6465813 -6.03103677 2.6465813 -8 5 C-8.16677282 8.58343976 -8.16677282 8.58343976 -8 12 C-8.66 11.67 -9.32 11.34 -10 11 C-10.85056945 7.44307323 -11.16909807 5.50729422 -10 2 C-6.58442859 0.19733731 -3.83134499 -0.218934 0 0 Z " fill="#EABB32" transform="translate(277,182)"/>
<path d="M0 0 C0.66 0.33 1.32 0.66 2 1 C-0.20866368 4.4873637 -2.04746952 5.81424086 -6 7 C-6.99 7 -7.98 7 -9 7 C-6.03 4.69 -3.06 2.38 0 0 Z " fill="#3D9EC4" transform="translate(172,140)"/>
<path d="M0 0 C3 0 3 0 4.75 1.6875 C6 4 6 4 5.8125 6.6875 C5 9 5 9 3 10 C3.0928125 8.63875 3.0928125 8.63875 3.1875 7.25 C2.98327924 3.71017358 2.35448165 2.55068845 0 0 Z " fill="#3F9CC1" transform="translate(154,228)"/>
</svg>
